<svg xmlns="http://www.w3.org/2000/svg" viewBox="0 0 64 64" role="img" aria-label="Protractor favicon">
  <defs>
    <linearGradient id="bg" x1="0" y1="0" x2="1" y2="1">
      <stop offset="0%" stop-color="#121311" />
      <stop offset="100%" stop-color="#1d1f1a" />
    </linearGradient>
    <linearGradient id="accent" x1="0" y1="0" x2="1" y2="0">
      <stop offset="0%" stop-color="#bda98a" />
      <stop offset="100%" stop-color="#e5d7c1" />
    </linearGradient>
  </defs>

  <rect x="4" y="4" width="56" height="56" rx="14" fill="url(#bg)" />

  <path
    d="M12 44 A20 20 0 0 1 52 44"
    fill="none"
    stroke="url(#accent)"
    stroke-width="3.2"
    stroke-linecap="round"
  />

  <path
    d="M17 44 A15 15 0 0 1 47 44"
    fill="none"
    stroke="#8f7a5d"
    stroke-width="1.6"
    opacity="0.9"
  />

  <g stroke="#d8cfbd" stroke-linecap="round">
    <line x1="12" y1="44" x2="16" y2="44" stroke-width="1.8" />
    <line x1="18" y1="31" x2="21" y2="33" stroke-width="1.5" />
    <line x1="27" y1="22" x2="29" y2="25" stroke-width="1.5" />
    <line x1="32" y1="20" x2="32" y2="24" stroke-width="1.8" />
    <line x1="37" y1="22" x2="35" y2="25" stroke-width="1.5" />
    <line x1="46" y1="31" x2="43" y2="33" stroke-width="1.5" />
    <line x1="52" y1="44" x2="48" y2="44" stroke-width="1.8" />
  </g>

  <line x1="32" y1="44" x2="22" y2="32" stroke="url(#accent)" stroke-width="2.2" />
  <circle cx="32" cy="44" r="2.8" fill="#bda98a" />
</svg>
